<svg width="14" height="14" viewBox="0 0 14 14" fill="none" xmlns="http://www.w3.org/2000/svg">
<rect width="14" height="14" rx="7" fill="#CEDAE6"/>
<path d="M6.55 3.94C7.21 3.94 7.74333 4.12667 8.15 4.5C8.55667 4.87333 8.76 5.37333 8.76 6C8.76 6.7 8.54333 7.22 8.11 7.56C7.67667 7.89333 7.09 8.06 6.35 8.06L6.32 9.01H5.53L5.49 7.43H5.78C6.44 7.43 6.95667 7.33 7.33 7.13C7.70333 6.93 7.89 6.55333 7.89 6C7.89 5.6 7.77 5.28333 7.53 5.05C7.29 4.81667 6.96667 4.7 6.56 4.7C6.14667 4.7 5.82 4.81333 5.58 5.04C5.34667 5.26 5.23 5.56333 5.23 5.95H4.37C4.37 5.55 4.46 5.2 4.64 4.9C4.82 4.59333 5.07333 4.35667 5.4 4.19C5.73333 4.02333 6.11667 3.94 6.55 3.94ZM5.92 11.06C5.74667 11.06 5.6 11 5.48 10.88C5.36 10.76 5.3 10.6133 5.3 10.44C5.3 10.2667 5.36 10.12 5.48 10C5.6 9.88 5.74667 9.82 5.92 9.82C6.08667 9.82 6.22667 9.88 6.34 10C6.46 10.12 6.52 10.2667 6.52 10.44C6.52 10.6133 6.46 10.76 6.34 10.88C6.22667 11 6.08667 11.06 5.92 11.06Z" fill="#1678DB"/>
</svg>
